<svg width="130" height="30" viewBox="0 0 130 30" fill="none" xmlns="http://www.w3.org/2000/svg">
<path d="M28 8.70898L26.7593 12.9707L25.9672 12.1805L21.7839 16.1318L18.7806 18.9683L16.3251 21.2873L14.0129 18.9683L12.9229 17.8747L11.5739 16.5207L11.1695 16.1158L8.95471 13.893L8.10371 14.7154L7.81883 14.9901L6.46975 16.296L5.11698 17.6035L3.72379 18.9504L3.70539 18.9683L1.71118 20.8948L0 22.5503L2.72392 18.9683L6.46975 14.0393L7.81883 12.2661L8.98595 10.7301L11.5739 13.3275L12.6803 14.4389L12.9229 14.6815L16.3747 18.1423L16.6798 17.8533L18.0289 16.5796L18.6281 16.0141L20.3723 14.3658L21.7839 13.0332L24.3718 10.5892L23.5778 9.79892L28 8.70898Z" fill="#2DFF34"/>
<path d="M6.46975 8.70898V14.0393L2.72392 18.9683H2.71289V8.70898H6.46975Z" fill="#FFCE5F"/>
<path d="M27.1545 16.0142C27.1545 23.726 20.6921 30.0001 12.7446 30.0001C8.69002 30.0001 4.91844 28.3464 2.25154 25.5992C1.72587 25.0587 1.24431 24.4771 0.810547 23.8563L2.46658 22.2561L5.12983 19.6855L5.87054 18.9684L6.46973 18.3904L7.81881 17.0846L8.11656 16.7974L8.82052 16.1159L8.93446 16.0035L8.9363 16.0053L8.99878 15.9447L11.5738 18.5278L12.6931 19.6517L16.3857 23.3568L18.639 21.2269L20.3851 19.5803L21.0321 18.9684L21.7838 18.2584L24.3827 15.802L16.3378 26.5019L11.1804 21.3303L8.96566 19.1075L8.11652 19.9282L5.12979 22.8163L3.87444 24.0311C6.11864 26.3699 9.31122 27.7791 12.7446 27.7791C19.4294 27.7791 24.8662 22.5024 24.8662 16.0143H27.1545V16.0142Z" fill="#00B7FF"/>
<path d="M11.5739 5.60327V13.3276L8.98597 10.7302L7.81885 12.2661V5.60327H11.5739Z" fill="#FFCE5F"/>
<path d="M16.6797 3.08618V17.8534L16.3746 18.1424L12.9229 14.6816V3.08618H16.6797Z" fill="#FFCE5F"/>
<path d="M21.7838 0V13.0333L20.3722 14.3658L18.628 16.0142L18.0288 16.5797V0H21.7838Z" fill="#FFCE5F"/>
<path d="M43.812 24.384C39.324 24.384 35.94 22.104 35.94 18.168H40.308C40.308 20.16 41.82 20.904 43.764 20.904C45.372 20.904 46.188 20.256 46.188 19.368C46.188 17.904 44.484 17.52 42.108 16.8C39.132 15.888 36.468 14.736 36.468 11.664C36.468 7.92 39.396 6.456 43.092 6.456C47.1 6.456 50.244 8.568 50.364 12.048H45.996C45.804 10.728 44.748 9.936 43.092 9.936C41.796 9.936 40.884 10.368 40.884 11.352C40.884 12.504 41.844 12.888 44.028 13.536C47.268 14.496 50.604 15.408 50.604 18.96C50.604 22.248 48.108 24.384 43.812 24.384ZM55.7019 10.248H51.8619V6.84H55.7019V10.248ZM55.7019 24H51.8619V11.712H55.7019V24ZM65.6631 12.936V11.712H69.5031V22.536C69.5031 26.928 67.1271 28.392 63.3591 28.392C59.5431 28.392 57.7671 26.376 57.3351 24.408H61.2231C61.4631 25.08 62.0151 25.632 63.3591 25.632C65.0871 25.632 65.6631 24.72 65.6631 22.536V21.816H65.6151C65.1351 22.464 64.0551 23.424 62.2551 23.424C59.1111 23.424 57.0951 20.928 57.0951 17.376C57.0951 13.824 59.1111 11.328 62.2551 11.328C64.0551 11.328 65.1351 12.288 65.6151 12.936H65.6631ZM63.3111 20.544C64.8711 20.544 65.5911 19.368 65.5911 17.376C65.5911 15.384 64.8711 14.208 63.3111 14.208C61.7511 14.208 61.0311 15.384 61.0311 17.376C61.0311 19.368 61.7511 20.544 63.3111 20.544ZM79.2707 11.328C81.6467 11.328 83.2547 12.888 83.2547 15.696V24H79.4147V16.92C79.4147 15.072 78.7667 14.448 77.4947 14.448C76.0307 14.448 75.1907 15.192 75.1907 16.896V24H71.3507V11.712H75.1907V13.488H75.2387C75.8867 12.36 77.0867 11.328 79.2707 11.328ZM88.464 24.384C86.064 24.384 84.552 22.968 84.552 20.784C84.552 18.24 86.64 17.256 89.256 16.704C90.6 16.416 92.496 16.224 92.496 15C92.496 14.328 91.968 13.896 90.864 13.896C89.448 13.896 88.8 14.472 88.68 15.672H85.032C85.152 13.32 86.88 11.304 91.032 11.304C94.368 11.304 96.216 12.648 96.216 16.416V21.168C96.216 21.816 96.288 22.104 96.672 22.104C96.768 22.104 96.84 22.104 96.984 22.08V23.904C96.216 24.048 95.424 24.12 94.872 24.12C93.336 24.12 92.76 23.544 92.568 22.512H92.52C91.656 23.592 90.24 24.384 88.464 24.384ZM90.072 21.744C91.608 21.744 92.496 20.448 92.496 19.032V18C91.992 18.192 91.416 18.336 90.408 18.576C88.992 18.912 88.488 19.512 88.488 20.376C88.488 21.312 89.088 21.744 90.072 21.744ZM102.203 24H98.3629V6.84H102.203V24ZM107.916 10.248H104.076V6.84H107.916V10.248ZM107.916 24H104.076V11.712H107.916V24ZM115.237 24.384C110.941 24.384 109.261 22.32 109.165 19.92H112.765C112.885 21.144 113.701 21.744 115.165 21.744C116.293 21.744 116.797 21.384 116.797 20.688C116.797 19.584 115.573 19.464 113.797 19.056C111.637 18.552 109.405 17.688 109.405 15.192C109.405 12.888 111.325 11.328 114.781 11.328C118.717 11.328 120.253 13.32 120.373 15.48H116.773C116.653 14.496 116.125 13.968 114.853 13.968C113.797 13.968 113.341 14.352 113.341 14.952C113.341 15.768 114.061 15.816 115.909 16.248C118.333 16.824 120.733 17.544 120.733 20.4C120.733 22.968 118.789 24.384 115.237 24.384ZM127.902 21.36C128.262 21.36 128.478 21.336 128.934 21.264V23.976C128.118 24.168 127.422 24.24 126.654 24.24C123.966 24.24 122.814 23.016 122.814 20.016V14.592H121.11V11.712H122.814V8.28H126.654V11.712H128.79V14.592H126.654V19.92C126.654 21.24 127.158 21.36 127.902 21.36Z" fill="white"/>
</svg>
